<svg xmlns="http://www.w3.org/2000/svg" xmlns:xlink="http://www.w3.org/1999/xlink" width="500" zoomAndPan="magnify" viewBox="0 0 375 97.5" height="130" preserveAspectRatio="xMidYMid meet" version="1.0"><defs><g/><clipPath id="6a96bc1b6a"><path d="M 8.941406 15.058594 L 76.097656 15.058594 L 76.097656 82.214844 L 8.941406 82.214844 Z M 8.941406 15.058594 " clip-rule="nonzero"/></clipPath></defs><g clip-path="url(#6a96bc1b6a)"><path fill="#ff1616" d="M 42.519531 15.058594 C 23.921875 15.058594 8.941406 30.039062 8.941406 48.636719 C 8.941406 67.234375 23.921875 82.214844 42.519531 82.214844 C 61.117188 82.214844 76.097656 67.234375 76.097656 48.636719 C 76.097656 30.039062 61.117188 15.058594 42.519531 15.058594 Z M 52.851562 30.558594 C 55.691406 30.558594 58.015625 32.882812 58.015625 35.722656 C 58.015625 38.5625 55.691406 40.890625 52.851562 40.890625 C 50.007812 40.890625 47.683594 38.5625 47.683594 35.722656 C 47.683594 32.882812 50.007812 30.558594 52.851562 30.558594 Z M 29.605469 33.140625 C 31.152344 33.140625 32.1875 34.171875 32.1875 35.722656 C 32.1875 34.171875 33.21875 33.140625 34.769531 33.140625 C 36.320312 33.140625 37.351562 34.171875 37.351562 35.722656 C 37.351562 38.5625 35.027344 40.890625 32.1875 40.890625 C 29.347656 40.890625 27.023438 38.5625 27.023438 35.722656 C 27.023438 34.171875 28.054688 33.140625 29.605469 33.140625 Z M 42.519531 69.300781 C 31.152344 69.300781 21.855469 61.292969 21.855469 51.21875 C 21.855469 49.671875 22.890625 48.636719 24.4375 48.636719 C 25.988281 48.636719 27.023438 49.671875 27.023438 51.21875 C 27.023438 58.453125 33.996094 64.136719 42.519531 64.136719 C 51.042969 64.136719 58.015625 58.453125 58.015625 51.21875 C 58.015625 49.671875 59.050781 48.636719 60.597656 48.636719 C 62.148438 48.636719 63.183594 49.671875 63.183594 51.21875 C 63.183594 61.292969 53.882812 69.300781 42.519531 69.300781 Z M 42.519531 69.300781 " fill-opacity="1" fill-rule="nonzero"/></g><g fill="#ff1616" fill-opacity="1"><g transform="translate(83.251963, 69.268382)"><g><path d="M 0 -29.871094 C 0 -29.269531 0.605469 -29.21875 0.753906 -29.167969 C 2.667969 -28.511719 2.417969 -25.894531 2.417969 -25.289062 L 2.417969 -5.945312 C 2.417969 -3.074219 2.015625 -1.359375 0.65625 0 L 17.53125 0 C 16.171875 -1.359375 15.765625 -3.074219 15.765625 -5.945312 L 15.765625 -34.054688 C 15.765625 -35.0625 15.71875 -36.019531 14.257812 -36.019531 C 11.285156 -36.019531 2.519531 -31.484375 0.554688 -30.527344 C 0.453125 -30.476562 0 -30.375 0 -29.871094 Z M 8.96875 -53.347656 C 4.535156 -53.347656 1.613281 -50.425781 1.613281 -45.992188 C 1.613281 -41.558594 4.535156 -38.636719 8.96875 -38.636719 C 13.398438 -38.636719 16.320312 -41.558594 16.320312 -45.992188 C 16.320312 -50.425781 13.398438 -53.347656 8.96875 -53.347656 Z M 8.96875 -53.347656 "/></g></g></g><g fill="#ff1616" fill-opacity="1"><g transform="translate(101.032924, 69.268382)"><g><path d="M 17.378906 0 C 16.019531 -1.359375 15.617188 -3.074219 15.617188 -5.945312 L 15.617188 -19.644531 C 15.617188 -25.238281 17.730469 -26.800781 20.050781 -26.800781 C 22.265625 -26.800781 22.921875 -24.632812 22.921875 -22.316406 L 22.921875 -5.945312 C 22.921875 -3.074219 22.519531 -1.359375 21.15625 0 L 38.035156 0 C 36.671875 -1.359375 36.269531 -3.074219 36.269531 -5.945312 L 36.269531 -14.558594 L 36.21875 -24.179688 C 36.21875 -29.417969 34.960938 -36.019531 27.605469 -36.019531 C 19.09375 -36.019531 18.035156 -29.015625 15.96875 -29.015625 C 15.765625 -29.015625 15.617188 -29.015625 15.617188 -30.226562 L 15.617188 -31.082031 C 15.617188 -33.652344 15.011719 -35.261719 12.847656 -35.261719 L 0.503906 -35.261719 C 1.863281 -33.902344 2.265625 -32.191406 2.265625 -29.320312 L 2.265625 -5.945312 C 2.265625 -3.074219 1.863281 -1.359375 0.503906 0 Z M 17.378906 0 "/></g></g></g><g fill="#ff1616" fill-opacity="1"><g transform="translate(139.314882, 69.268382)"><g><path d="M 17.378906 0 C 16.019531 -1.359375 15.617188 -3.074219 15.617188 -5.945312 L 15.617188 -19.644531 C 15.617188 -25.238281 17.730469 -26.800781 20.050781 -26.800781 C 22.265625 -26.800781 22.921875 -24.632812 22.921875 -22.316406 L 22.921875 -5.945312 C 22.921875 -3.074219 22.519531 -1.359375 21.15625 0 L 38.035156 0 C 36.671875 -1.359375 36.269531 -3.074219 36.269531 -5.945312 L 36.269531 -14.558594 L 36.21875 -24.179688 C 36.21875 -29.417969 34.960938 -36.019531 27.605469 -36.019531 C 19.09375 -36.019531 18.035156 -29.015625 15.96875 -29.015625 C 15.765625 -29.015625 15.617188 -29.015625 15.617188 -30.226562 L 15.617188 -31.082031 C 15.617188 -33.652344 15.011719 -35.261719 12.847656 -35.261719 L 0.503906 -35.261719 C 1.863281 -33.902344 2.265625 -32.191406 2.265625 -29.320312 L 2.265625 -5.945312 C 2.265625 -3.074219 1.863281 -1.359375 0.503906 0 Z M 17.378906 0 "/></g></g></g><g fill="#ff1616" fill-opacity="1"><g transform="translate(177.596841, 69.268382)"><g><path d="M 6.398438 -4.433594 C 9.824219 -0.957031 14.308594 0.753906 18.890625 0.753906 C 23.574219 0.753906 28.363281 -1.109375 32.039062 -4.835938 C 39.242188 -12.140625 39.445312 -23.726562 32.441406 -30.78125 C 29.015625 -34.253906 24.53125 -35.96875 19.949219 -35.96875 C 15.265625 -35.96875 10.476562 -34.105469 6.800781 -30.425781 C -0.453125 -23.121094 -0.605469 -11.535156 6.398438 -4.433594 Z M 16.976562 -33.296875 C 20.25 -33.800781 23.980469 -27.152344 25.289062 -18.4375 C 26.597656 -9.570312 25.035156 -2.167969 21.8125 -1.664062 C 18.539062 -1.160156 14.808594 -7.757812 13.449219 -16.523438 C 12.089844 -25.339844 13.652344 -32.792969 16.976562 -33.296875 Z M 16.976562 -33.296875 "/></g></g></g><g fill="#ff1616" fill-opacity="1"><g transform="translate(216.432886, 69.268382)"><g><path d="M 4.28125 -25.1875 C 5.996094 -19.445312 6.851562 -16.726562 8.058594 -11.988281 C 9.371094 -6.902344 10.832031 0 14.960938 0 L 25.992188 0 C 27.402344 0 28.863281 0.0507812 29.921875 -3.023438 C 33.550781 -13.5 37.882812 -24.683594 37.882812 -29.570312 C 37.882812 -32.84375 36.371094 -36.019531 32.390625 -36.019531 C 27.152344 -36.019531 20.703125 -32.339844 20.703125 -29.167969 C 20.703125 -26.597656 29.824219 -27.65625 29.824219 -14.808594 C 29.824219 -9.167969 27.957031 -3.324219 26.195312 -3.324219 C 23.726562 -3.324219 20.703125 -16.472656 18.386719 -25.1875 C 17.378906 -29.015625 16.421875 -32.441406 17.632812 -35.261719 L 0 -35.261719 C 2.117188 -33.398438 3.074219 -29.269531 4.28125 -25.1875 Z M 4.28125 -25.1875 "/></g></g></g><g fill="#ff1616" fill-opacity="1"><g transform="translate(255.571156, 69.268382)"><g><path d="M 6.398438 -4.433594 C 9.824219 -0.957031 14.308594 0.753906 18.890625 0.753906 C 23.574219 0.753906 28.363281 -1.109375 32.039062 -4.835938 C 39.242188 -12.140625 39.445312 -23.726562 32.441406 -30.78125 C 29.015625 -34.253906 24.53125 -35.96875 19.949219 -35.96875 C 15.265625 -35.96875 10.476562 -34.105469 6.800781 -30.425781 C -0.453125 -23.121094 -0.605469 -11.535156 6.398438 -4.433594 Z M 16.976562 -33.296875 C 20.25 -33.800781 23.980469 -27.152344 25.289062 -18.4375 C 26.597656 -9.570312 25.035156 -2.167969 21.8125 -1.664062 C 18.539062 -1.160156 14.808594 -7.757812 13.449219 -16.523438 C 12.089844 -25.339844 13.652344 -32.792969 16.976562 -33.296875 Z M 16.976562 -33.296875 "/></g></g></g><g fill="#ff1616" fill-opacity="1"><g transform="translate(294.407201, 69.268382)"><g><path d="M 0.753906 -4.988281 C 0.753906 -2.769531 1.160156 0 3.476562 0 L 29.773438 0 C 31.6875 0 31.433594 -0.402344 31.433594 -3.628906 C 31.433594 -4.433594 31.484375 -9.519531 31.484375 -11.234375 C 31.484375 -12.492188 31.382812 -12.847656 30.929688 -12.847656 C 29.871094 -12.847656 29.320312 -10.226562 25.238281 -10.226562 L 18.1875 -10.226562 C 16.675781 -10.226562 16.070312 -11.03125 16.070312 -12.542969 C 16.070312 -18.992188 32.492188 -27.554688 32.492188 -33.800781 C 32.492188 -35.566406 30.074219 -35.261719 29.117188 -35.261719 L 1.007812 -35.261719 L 1.007812 -25.1875 C 1.007812 -24.484375 1.410156 -23.777344 2.117188 -23.777344 C 3.476562 -23.777344 3.476562 -25.1875 7.757812 -25.1875 L 19.242188 -25.1875 C 20.148438 -25.1875 21.359375 -25.1875 21.359375 -24.230469 C 21.359375 -21.660156 0.753906 -15.816406 0.753906 -4.988281 Z M 0.753906 -4.988281 "/></g></g></g><g fill="#ff1616" fill-opacity="1"><g transform="translate(327.652052, 69.268382)"><g><path d="M 1.257812 -7.859375 C 1.257812 -3.023438 5.339844 0.753906 10.226562 0.753906 C 17.429688 0.753906 18.890625 -3.929688 21.007812 -3.929688 C 21.761719 -3.929688 22.164062 -3.023438 22.316406 -2.167969 C 22.566406 -0.804688 23.425781 0 24.9375 0 L 37.277344 0 C 35.917969 -1.359375 35.515625 -3.074219 35.515625 -5.945312 L 35.515625 -20.90625 C 35.515625 -28.109375 30.074219 -36.019531 18.488281 -36.019531 C 13.148438 -36.019531 7.859375 -35.261719 4.433594 -31.988281 C 3.125 -30.78125 3.425781 -28.964844 3.425781 -27.253906 L 3.425781 -24.484375 C 3.425781 -23.625 4.179688 -22.871094 4.988281 -22.871094 C 8.109375 -22.871094 11.386719 -33.148438 17.730469 -33.246094 C 21.460938 -33.296875 22.113281 -30.375 22.113281 -28.160156 C 22.113281 -27.253906 21.761719 -26.246094 20.300781 -25.945312 C 10.832031 -23.980469 1.257812 -18.589844 1.257812 -7.859375 Z M 20.300781 -22.667969 C 21.660156 -22.667969 22.113281 -21.8125 22.113281 -19.546875 C 22.113281 -16.421875 22.164062 -14.558594 22.164062 -11.386719 C 22.164062 -8.109375 20.804688 -5.640625 18.085938 -5.640625 C 14.355469 -5.640625 13.300781 -9.066406 13.300781 -12.59375 C 13.300781 -18.789062 17.027344 -22.667969 20.300781 -22.667969 Z M 20.300781 -22.667969 "/></g></g></g></svg>