<svg version="1.0" preserveAspectRatio="xMidYMid meet" height="130" viewBox="0 0 97.5 97.5" zoomAndPan="magnify" width="130" xmlns:xlink="http://www.w3.org/1999/xlink" xmlns="http://www.w3.org/2000/svg"><defs><g/><clipPath id="6a96bc1b6a"><path d="M 8.941406 15.058594 L 76.097656 15.058594 L 76.097656 82.214844 L 8.941406 82.214844 Z M 8.941406 15.058594 " clip-rule="nonzero"/></clipPath></defs><g clip-path="url(#6a96bc1b6a)"><path fill="#ff1616" d="M 42.519531 15.058594 C 23.921875 15.058594 8.941406 30.039062 8.941406 48.636719 C 8.941406 67.234375 23.921875 82.214844 42.519531 82.214844 C 61.117188 82.214844 76.097656 67.234375 76.097656 48.636719 C 76.097656 30.039062 61.117188 15.058594 42.519531 15.058594 Z M 52.851562 30.558594 C 55.691406 30.558594 58.015625 32.882812 58.015625 35.722656 C 58.015625 38.5625 55.691406 40.890625 52.851562 40.890625 C 50.007812 40.890625 47.683594 38.5625 47.683594 35.722656 C 47.683594 32.882812 50.007812 30.558594 52.851562 30.558594 Z M 29.605469 33.140625 C 31.152344 33.140625 32.1875 34.171875 32.1875 35.722656 C 32.1875 34.171875 33.21875 33.140625 34.769531 33.140625 C 36.320312 33.140625 37.351562 34.171875 37.351562 35.722656 C 37.351562 38.5625 35.027344 40.890625 32.1875 40.890625 C 29.347656 40.890625 27.023438 38.5625 27.023438 35.722656 C 27.023438 34.171875 28.054688 33.140625 29.605469 33.140625 Z M 42.519531 69.300781 C 31.152344 69.300781 21.855469 61.292969 21.855469 51.21875 C 21.855469 49.671875 22.890625 48.636719 24.4375 48.636719 C 25.988281 48.636719 27.023438 49.671875 27.023438 51.21875 C 27.023438 58.453125 33.996094 64.136719 42.519531 64.136719 C 51.042969 64.136719 58.015625 58.453125 58.015625 51.21875 C 58.015625 49.671875 59.050781 48.636719 60.597656 48.636719 C 62.148438 48.636719 63.183594 49.671875 63.183594 51.21875 C 63.183594 61.292969 53.882812 69.300781 42.519531 69.300781 Z M 42.519531 69.300781 " fill-opacity="1" fill-rule="nonzero"/></g></svg>